<mxfile host="app.diagrams.net" modified="2022-08-30T14:11:35.437Z" agent="5.0 (Windows NT 10.0; Win64; x64) AppleWebKit/537.36 (KHTML, like Gecko) Chrome/97.0.4692.99 Safari/537.36" etag="2lZ7FK7DhDMzGBuqIevy" version="20.2.7" type="github">
  <diagram id="07fea595-8f29-1299-0266-81d95cde20df" name="Page-1">
    <mxGraphModel dx="1955" dy="1090" grid="1" gridSize="10" guides="1" tooltips="1" connect="1" arrows="1" fold="1" page="1" pageScale="1" pageWidth="1169" pageHeight="827" background="none" math="0" shadow="0">
      <root>
        <mxCell id="0" />
        <mxCell id="1" parent="0" />
        <mxCell id="bgfTngnMZIJXz79HTYot-662" value="" style="rounded=0;whiteSpace=wrap;html=1;fillColor=#f5f5f5;strokeColor=#666666;fontColor=#333333;" vertex="1" parent="1">
          <mxGeometry x="120" y="120" width="1000" height="640" as="geometry" />
        </mxCell>
        <mxCell id="bgfTngnMZIJXz79HTYot-664" value="&lt;p style=&quot;&quot;&gt;&lt;font size=&quot;1&quot; face=&quot;Times New Roman&quot; style=&quot;&quot;&gt;&lt;b style=&quot;line-height: 0.9; font-size: 30px;&quot;&gt;Base de remboursement&lt;/b&gt;&lt;/font&gt;&lt;/p&gt;" style="rounded=1;whiteSpace=wrap;html=1;fillColor=#66FFFF;strokeColor=#6c8ebf;align=center;" vertex="1" parent="1">
          <mxGeometry x="510" y="270" width="210" height="490" as="geometry" />
        </mxCell>
        <mxCell id="bgfTngnMZIJXz79HTYot-665" value="&lt;font size=&quot;1&quot; face=&quot;Times New Roman&quot;&gt;&lt;b style=&quot;font-size: 29px;&quot;&gt;Remboursement de la sécurité sociale&lt;/b&gt;&lt;/font&gt;" style="rounded=1;whiteSpace=wrap;html=1;fillColor=#f8cecc;strokeColor=#b85450;" vertex="1" parent="1">
          <mxGeometry x="840" y="420" width="210" height="340" as="geometry" />
        </mxCell>
        <mxCell id="bgfTngnMZIJXz79HTYot-667" value="&lt;font size=&quot;1&quot; style=&quot;&quot;&gt;&lt;b style=&quot;font-size: 28px;&quot;&gt;Dépassements&lt;/b&gt;&lt;/font&gt;" style="rounded=1;whiteSpace=wrap;html=1;fillColor=#fff2cc;strokeColor=#d6b656;" vertex="1" parent="1">
          <mxGeometry x="513" y="121" width="210" height="149" as="geometry" />
        </mxCell>
        <mxCell id="bgfTngnMZIJXz79HTYot-669" value="&lt;p style=&quot;&quot;&gt;&lt;font color=&quot;#ffffff&quot; size=&quot;1&quot; face=&quot;Times New Roman&quot; style=&quot;&quot;&gt;&lt;b style=&quot;line-height: 0.9; font-size: 30px;&quot;&gt;Frais réels&lt;/b&gt;&lt;/font&gt;&lt;/p&gt;" style="rounded=1;whiteSpace=wrap;html=1;fillColor=#0000CC;strokeColor=#6c8ebf;align=center;" vertex="1" parent="1">
          <mxGeometry x="190" y="120" width="210" height="640" as="geometry" />
        </mxCell>
        <mxCell id="bgfTngnMZIJXz79HTYot-670" value="&lt;font size=&quot;1&quot; style=&quot;&quot;&gt;&lt;b style=&quot;font-size: 28px;&quot;&gt;Dépassements&lt;/b&gt;&lt;/font&gt;" style="rounded=1;whiteSpace=wrap;html=1;fillColor=#fff2cc;strokeColor=#d6b656;" vertex="1" parent="1">
          <mxGeometry x="840" y="120" width="210" height="149" as="geometry" />
        </mxCell>
        <mxCell id="bgfTngnMZIJXz79HTYot-671" value="&lt;font size=&quot;1&quot; style=&quot;&quot;&gt;&lt;b style=&quot;font-size: 28px;&quot;&gt;Ticket modérateur&lt;/b&gt;&lt;/font&gt;" style="rounded=1;whiteSpace=wrap;html=1;fillColor=#e1d5e7;strokeColor=#9673a6;" vertex="1" parent="1">
          <mxGeometry x="840" y="269" width="210" height="149" as="geometry" />
        </mxCell>
      </root>
    </mxGraphModel>
  </diagram>
</mxfile>
